<?xml version="1.0" encoding="utf-8"?>
<!-- Generator: Adobe Illustrator 25.1.0, SVG Export Plug-In . SVG Version: 6.00 Build 0)  -->
<svg version="1.1" id="b07430f3-9004-4b3c-aca4-2a4a6750cad0"
	 xmlns="http://www.w3.org/2000/svg" xmlns:xlink="http://www.w3.org/1999/xlink" x="0px" y="0px" viewBox="0 0 494.7 494.7"
	 style="enable-background:new 0 0 494.7 494.7;" xml:space="preserve">
<style type="text/css">
	.st0{fill:#EAF2DC;}
	.st1{fill:#0B0F14;}
</style>
<circle class="st0" cx="247.3" cy="247.3" r="246.8"/>
<path class="st1" d="M447,275.9l-18.2-3.5c-0.4,4.4-1.5,8.2-3.3,10.5s-5.1,3.4-8.3,3.4c-2.8,0.1-5.5-1-7.5-2.9s-3-4.9-3-8.7V246h34
	v-23.2h-34.1v-21.1H382v72.5c0,10.3,2.9,18.6,8.8,24.8c5.8,6.2,14.5,9.3,26.1,9.4c9.9,0,18.3-2.8,24.2-8.4c2.4-2.3,4.4-4.9,6-7.8
	c2.5-4.8,4.2-9.9,4.8-15.3L447,275.9z"/>
<path class="st1" d="M207.6,233.1c-4-7.3-9.9-13.4-17.1-17.6c-7.1-4.3-15.4-6.5-24.9-6.4c-8.7-0.2-17.3,2.1-24.9,6.4
	c-7.2,4.2-13.1,10.3-17.1,17.7c-4.2,7.8-6.4,16.6-6.2,25.5c-0.1,8.9,2,17.7,6.2,25.6c4,7.3,9.9,13.4,17.1,17.6
	c7.6,4.4,16.2,6.6,24.9,6.5c9.5,0,17.8-2.1,24.9-6.4c7.2-4.2,13.1-10.3,17.1-17.7c4.2-7.8,6.4-16.6,6.2-25.5
	C214,249.8,211.8,241,207.6,233.1z M186.4,273c-1.9,4-4.9,7.4-8.5,9.9c-7.5,4.6-17,4.6-24.5,0c-3.7-2.5-6.6-5.9-8.5-9.9
	c-2.2-4.7-3.2-9.8-3.1-15c-0.1-5.2,1-10.3,3.1-15c1.9-4,4.8-7.4,8.5-9.8c7.5-4.6,17-4.6,24.5,0c3.7,2.4,6.7,5.8,8.5,9.8
	c2.2,4.7,3.2,9.8,3.1,15C189.6,263.2,188.5,268.4,186.4,273z"/>
<path class="st1" d="M346.2,270.1c-1.1,4.6-3.6,8.8-7.2,11.9c-3.5,3-8.3,4.4-14.4,4.4c-4,0-8-0.8-11.7-2.4c-3.6-1.7-6.7-4.4-9-7.6
	c-2.3-3.9-3.6-8.3-3.6-12.9h62.9c0.3-1.9,0.5-3.7,0.6-5.6c0.3-2,0.4-4,0.4-6c0-8.9-1.8-16.4-5.5-22.7c-3.4-6.3-8.5-11.5-14.8-14.9
	c-6.3-3.5-13.8-5.2-22.4-5.2c-9.2,0-17.2,2.2-24.1,6.6c-6.8,4.4-12.4,10.5-16.1,17.7c-3.8,7.7-5.8,16.1-5.6,24.7
	c0,10.2,2.1,19.1,6.2,26.7c4,7.4,10,13.4,17.3,17.5c7.8,4.1,16.5,6.2,25.3,6.1c11.1,0,20.3-2.7,27.4-8c7.3-5.4,12.7-13.1,15.3-21.8
	L346.2,270.1z M308,233.9c3.8-2.8,8.5-4.3,13.2-4.2c3.3-0.1,6.7,0.6,9.7,1.9c2.7,1,5,2.8,6.6,5.2c1.8,2.3,2.7,5.2,2.7,8.1
	c0,0.3-0.1,0.7-0.2,1h-39.5C301.9,240.7,304.1,236.7,308,233.9L308,233.9z"/>
<path class="st1" d="M219.7,306.3l29.1-118H275l-29.1,118H219.7z"/>
<path class="st1" d="M37.5,211l25.1,71L89,211h26.3l-37.5,95.3H47.6L11.2,211H37.5z"/>
<path class="st1" d="M473.7,308.3c-1.9,0-3.8-0.5-5.5-1.5c-1.6-1-2.9-2.4-3.8-4c-1.9-3.4-1.9-7.6,0-11c2.8-5.1,9.2-7.1,14.3-4.3
	c1.8,1,3.3,2.5,4.3,4.3c1.9,3.5,1.9,7.6,0,11.1c-0.9,1.6-2.2,3-3.8,4C477.6,307.9,475.7,308.4,473.7,308.3z M473.7,305.7
	c1.5,0,2.9-0.4,4.1-1.1c1.2-0.8,2.2-1.8,2.9-3.1c0.7-1.3,1.1-2.7,1-4.2c0-1.5-0.3-2.9-1-4.2c-0.7-1.2-1.7-2.3-2.9-3
	c-2.6-1.5-5.7-1.5-8.3,0c-1.2,0.7-2.2,1.8-2.9,3c-1.1,1.9-1.4,4.2-0.9,6.4c0.5,2.1,1.9,4,3.8,5.2
	C470.8,305.4,472.3,305.8,473.7,305.7L473.7,305.7z M473.8,302.7c-0.9,0-1.8-0.3-2.6-0.8c-0.8-0.5-1.5-1.2-1.9-2
	c-0.9-1.7-0.9-3.7,0-5.4c0.9-1.6,2.6-2.5,4.4-2.5c1.1,0,2.2,0.3,3.1,0.9c0.9,0.7,1.5,1.7,1.6,2.8l-2.1,0.7c-0.1-0.6-0.4-1.2-0.9-1.7
	c-0.5-0.4-1.1-0.6-1.7-0.6c-0.7,0-1.4,0.3-1.9,0.8c-0.5,0.4-0.8,1-1,1.6c-0.1,0.6-0.1,1.3,0.1,1.9s0.6,1.1,1.1,1.5s1.1,0.6,1.8,0.6
	c0.4,0,0.8,0,1.1-0.2c0.4-0.1,0.7-0.4,1-0.6c0.5-0.6,0.8-1.3,0.9-2l2.1,0.8c-0.3,1.2-0.9,2.3-1.8,3.1
	C476.1,302.3,475,302.7,473.8,302.7L473.8,302.7z"/>
</svg>
