<svg width="10" height="6" viewBox="0 0 10 6" fill="none" xmlns="http://www.w3.org/2000/svg">
<path d="M9.47323 0.473322C9.41125 0.410836 9.33752 0.36124 9.25628 0.327394C9.17504 0.293548 9.08791 0.276123 8.9999 0.276123C8.91189 0.276123 8.82475 0.293548 8.74351 0.327394C8.66227 0.36124 8.58854 0.410836 8.52657 0.473322L5.47323 3.52665C5.41126 3.58913 5.33752 3.63873 5.25628 3.67258C5.17504 3.70642 5.08791 3.72385 4.9999 3.72385C4.91189 3.72385 4.82475 3.70642 4.74351 3.67258C4.66227 3.63873 4.58854 3.58913 4.52656 3.52665L1.47323 0.473322C1.41126 0.410836 1.33752 0.36124 1.25628 0.327394C1.17504 0.293548 1.08791 0.276123 0.999898 0.276123C0.91189 0.276123 0.824753 0.293548 0.743513 0.327394C0.662274 0.36124 0.58854 0.410836 0.526564 0.473322C0.402397 0.59823 0.332703 0.767197 0.332703 0.943321C0.332703 1.11944 0.402397 1.28841 0.526564 1.41332L3.58656 4.47331C3.96157 4.84785 4.4699 5.05822 4.9999 5.05822C5.5299 5.05822 6.03823 4.84785 6.41323 4.47331L9.47323 1.41332C9.5974 1.28841 9.66709 1.11944 9.66709 0.943321C9.66709 0.767197 9.5974 0.59823 9.47323 0.473322Z" fill="#00ADB5"/>
</svg>
