<svg width="20" height="20" viewBox="0 0 20 20" fill="none" xmlns="http://www.w3.org/2000/svg">
<path d="M15.5916 7.67509C15.5141 7.59698 15.4219 7.53498 15.3204 7.49268C15.2188 7.45037 15.1099 7.42859 14.9999 7.42859C14.8899 7.42859 14.781 7.45037 14.6794 7.49268C14.5779 7.53498 14.4857 7.59698 14.4082 7.67509L10.5916 11.4917C10.5141 11.5699 10.4219 11.6318 10.3204 11.6742C10.2188 11.7165 10.1099 11.7382 9.99989 11.7382C9.88988 11.7382 9.78096 11.7165 9.67941 11.6742C9.57786 11.6318 9.48569 11.5699 9.40822 11.4917L5.59155 7.67509C5.51409 7.59698 5.42192 7.53498 5.32037 7.49268C5.21882 7.45037 5.1099 7.42859 4.99989 7.42859C4.88988 7.42859 4.78096 7.45037 4.67941 7.49268C4.57786 7.53498 4.48569 7.59698 4.40822 7.67509C4.25301 7.83122 4.16589 8.04243 4.16589 8.26259C4.16589 8.48274 4.25301 8.69395 4.40822 8.85008L8.23322 12.6751C8.70197 13.1432 9.33739 13.4062 9.99989 13.4062C10.6624 13.4062 11.2978 13.1432 11.7666 12.6751L15.5916 8.85008C15.7468 8.69395 15.8339 8.48274 15.8339 8.26259C15.8339 8.04243 15.7468 7.83122 15.5916 7.67509Z" fill="#767D88"/>
</svg>
