<?xml version="1.0" encoding="utf-8"?>
<!-- Generator: Adobe Illustrator 23.1.0, SVG Export Plug-In . SVG Version: 6.00 Build 0)  -->
<svg version="1.1" id="Слой_1" xmlns:v="https://vecta.io/nano"
	 xmlns="http://www.w3.org/2000/svg" xmlns:xlink="http://www.w3.org/1999/xlink" x="0px" y="0px" viewBox="0 0 95 112"
	 style="enable-background:new 0 0 95 112;" xml:space="preserve">
<style type="text/css">
	.st0{fill:#0000FF;}
	.st1{fill:#FFFFFF;}
</style>
<path class="st0" d="M94,89c0,10.5-46,11.6-46,22.9h-1C47,100.7,1,99.5,1,89H0V0h95v89H94z"/>
<path class="st1" d="M47.8,40h-0.6c0-6.3-25.2-6.8-25.2-12.6h-0.6v6.1c0,7.2,25.3,6.5,25.8,13.5h0.6c0.5-6.9,25.8-6.3,25.8-13.5
	v-6.1H73C73,33.1,47.8,33.8,47.8,40z"/>
<path class="st1" d="M73,41c0,5.8-25.2,6.5-25.2,12.6h-0.6C47.2,47.3,22,46.8,22,41h-0.6v6.1c0,7.2,25.3,6.5,25.8,13.5h0.6
	c0.5-6.9,25.8-6.3,25.8-13.5V41H73z"/>
<path class="st1" d="M73,54.8c0,5.8-25.2,6.5-25.2,12.6h-0.6c0-6.3-25.2-6.8-25.2-12.6h-0.6v6.1c0,7.2,25.3,6.5,25.8,13.5h0.6
	c0.5-6.9,25.8-6.3,25.8-13.5v-6.1H73z"/>
</svg>
