<?xml version="1.0" encoding="utf-8"?>
<!-- Generator: Adobe Illustrator 25.1.0, SVG Export Plug-In . SVG Version: 6.00 Build 0)  -->
<svg version="1.1" id="Layer_1" xmlns="http://www.w3.org/2000/svg" xmlns:xlink="http://www.w3.org/1999/xlink" x="0px" y="0px"
	 viewBox="0 0 593.8 593.8" style="enable-background:new 0 0 593.8 593.8;" xml:space="preserve">
<style type="text/css">
	.st0{fill:#0AC18E;}
	.st1{fill:#FFFFFF;}
</style>
<circle class="st0" cx="296.9" cy="296.9" r="296.9"/>
<path class="st1" d="M436.2,309.2l-0.2-0.3l0-0.1c-0.1-0.3-0.2-0.6-0.3-1l0,0l0,0l0,0l0,0l0,0l0,0l0-0.1
	c-3.5-11.7-10.4-22-19.8-29.7l0,0c-0.3-0.2-0.6-0.5-0.9-0.7l-0.4-0.3l-0.3-0.2l-0.1-0.1l-0.3-0.2l-0.1-0.1l-0.3-0.2l-0.1-0.1
	L413,276l-0.1-0.1l-0.3-0.2l-0.1-0.1l-0.3-0.2l-0.1-0.1l-0.2-0.3l-0.2-0.1l-0.3-0.2l-0.2-0.1l-0.3-0.2l-0.2-0.1l-0.3-0.2l-0.2-0.1
	l-0.3-0.2l-0.2-0.1l-0.3-0.2l-0.2-0.1l-0.3-0.2l-0.2-0.1l-0.3-0.2l-0.2-0.1l-0.3-0.2l-0.2-0.1l-0.3-0.2l-0.2-0.1l-0.4-0.2l-0.2-0.1
	l-0.4-0.2l-0.2-0.1l-0.4-0.2l-0.2-0.1l-0.4-0.2l-0.2-0.1l-0.4-0.2l-0.2-0.1l-0.4-0.2l-0.2-0.1l-0.4-0.2l-0.3-0.1l0,0
	c-0.2-0.1-0.4-0.2-0.6-0.3c-8.5-4.4-17.7-7.3-27.1-8.6c2.7-2.9,5.1-5.9,7.3-9.1l0.3-0.5l0,0l0.2-0.3l0.2-0.3l0.1-0.2l0.2-0.3
	l0.1-0.2l0.2-0.3l0.1-0.2l0.2-0.3l0.1-0.2l0.2-0.3l0.1-0.2l0.2-0.3l0.1-0.2l0.2-0.3l0.1-0.1l0.2-0.3l0.1-0.1l0.2-0.3l0.1-0.1
	l0.2-0.3l0.1-0.1l0.2-0.3l0.1-0.1l0.2-0.3l0.1-0.1l0.2-0.3l0.1-0.1l0.2-0.3l0.1-0.1l0.1-0.3l0.1-0.1l0.1-0.3l0.1-0.1l0.1-0.3
	l0.1-0.1l0.1-0.3l0.1-0.1l0.1-0.3l0.1-0.1l0.1-0.3l0.1-0.1l0.1-0.3l0.1-0.1l0.1-0.3l0.1-0.1l0.1-0.3l0.2-0.4
	c0.1-0.3,0.2-0.6,0.4-0.9l0,0c4.1-10,5-21,2.7-31.6l0,0l0-0.1l0,0l0,0l0,0l0,0l0,0l0,0c-0.1-0.3-0.1-0.6-0.2-0.9v-0.1l0,0l0,0l0,0
	l0,0l-0.1-0.2c-0.1-0.4-0.2-0.8-0.3-1.3c-0.1-0.4-0.2-0.8-0.3-1.2l-0.2-0.3l0-0.1c-0.1-0.3-0.2-0.6-0.3-0.9l0,0l0,0l0,0l0,0l0,0l0,0
	l0,0c-3.1-10.4-9.2-19.6-17.6-26.4l0,0c-0.2-0.2-0.5-0.4-0.7-0.6l-0.3-0.2l-0.3-0.2l-0.1-0.1l-0.2-0.2l-0.1-0.1l-0.2-0.2l-0.1-0.1
	l-0.3-0.2l-0.1-0.1l-0.3-0.2l-0.1-0.1l-0.3-0.2l-0.1-0.1l-0.3-0.2l-0.1-0.1l-0.3-0.2l-0.1-0.1l-0.3-0.2l-0.1-0.1l-0.3-0.2l-0.1-0.1
	l-0.3-0.2l-0.1-0.1l-0.3-0.2l-0.1-0.1l-0.3-0.2l-0.1-0.1l-0.3-0.2l-0.1-0.1l-0.3-0.2l-0.1-0.1l-0.3-0.2l-0.1-0.1l-0.3-0.2l-0.2-0.1
	l-0.3-0.2l-0.2-0.1l-0.3-0.2l-0.2-0.1l-0.3-0.2l-0.2-0.1l-0.4-0.2l-0.2-0.1l-0.4-0.2l-0.2-0.1l-0.4-0.2l-0.3-0.1l0,0l-0.6-0.3
	c-16.2-8.4-36.8-11-57.5-5.6L298,164l-13.6-53.1l-31.6,8.1l13.6,52.9l-25.3,6.5l-13.6-52.7l-31.6,8.1l13.6,52.9l-65.2,16.8l8.7,33.7
	l26.3-6.7c8.7-2.2,17.6,3,19.8,11.7l0,0l0,0L235.5,384c1.5,5.8-2,11.7-7.8,13.2l-23,5.9l1.4,40.1l65.1-16.7l13.8,52.8l31.6-8.1
	l-13.6-52.9l25.3-6.5l13.6,52.9l31.6-8.1l-13.7-53.1c5.4-1.4,10-2.6,13.1-3.4c23.4-6,42.2-19.7,53.7-36.8l0.4-0.6l0,0l0.2-0.3
	l0.2-0.4l0.1-0.2l0.2-0.4l0.1-0.2l0.2-0.4l0.1-0.2l0.2-0.4l0.1-0.2l0.2-0.4l0.1-0.2l0.2-0.4l0.1-0.2l0.2-0.4l0.1-0.2l0.2-0.4
	l0.1-0.2l0.2-0.3l0.1-0.2l0.2-0.3l0.1-0.2l0.2-0.3l0.1-0.2l0.2-0.3l0.1-0.2l0.2-0.3l0.1-0.2l0.2-0.3l0.1-0.2l0.2-0.3l0.1-0.1
	l0.2-0.3l0.1-0.1l0.2-0.3l0.1-0.1l0.2-0.3l0.1-0.1l0.2-0.3l0.1-0.1l0.2-0.3l0.1-0.1l0.1-0.3l0.1-0.1l0.1-0.3l0.1-0.1l0.1-0.3
	l0.2-0.4c0.1-0.3,0.3-0.7,0.4-1l0,0c4.6-11.3,5.6-23.7,3.1-35.6l0,0l0,0l0,0l0,0l0,0l0,0l0,0l0,0c-0.1-0.3-0.1-0.6-0.2-1v-0.1l0,0
	l0,0l0,0l0,0l0,0l0,0l0,0l0,0l0,0l0,0l0,0l0,0l0,0l-0.1-0.1c-0.1-0.5-0.2-0.9-0.4-1.4C436.2,310.1,436.2,309.7,436.2,309.2z
	 M250.5,214.4c5.4-1.4,27.7-7,35-8.9c11.7-3,23.2-1.8,32.2,2.5l0.3,0.1l0,0l0.1,0.1l0.2,0.1l0.1,0l0.2,0.1l0.1,0l0.2,0.1l0.1,0
	l0.2,0.1l0.1,0l0.2,0.1l0.1,0l0.2,0.1l0.1,0l0.2,0.1l0.1,0l0.2,0.1l0.1,0l0.2,0.1l0.1,0l0.2,0.1l0.1,0l0.2,0.1l0.1,0l0.2,0.1l0.1,0
	l0.1,0.1l0.1,0l0.1,0.1l0.1,0l0.1,0.1l0.1,0l0.1,0.1l0.1,0l0.1,0.1l0.1,0.1l0.1,0.1l0.1,0l0.1,0.1l0.1,0l0.1,0.1l0.1,0l0.1,0.1
	l0.1,0l0.1,0.1l0.1,0l0.1,0.1l0.2,0.1c0.1,0.1,0.3,0.2,0.4,0.3l0,0c4.6,3.5,8,8.3,9.7,13.8l0,0l0,0.1c0,0.1,0.1,0.3,0.1,0.5l0,0
	l0.1,0.2c0.1,0.2,0.1,0.4,0.2,0.7c0.1,0.2,0.1,0.5,0.1,0.7l0.1,0.2l0,0c0,0.2,0.1,0.3,0.1,0.5l0,0.1l0,0c1.2,5.6,0.6,11.5-1.8,16.8
	l0,0l-0.2,0.5l-0.1,0.2l-0.1,0.1l0,0.1l-0.1,0.1l0,0.1l-0.1,0.1l0,0.1l-0.1,0.1l0,0.1l-0.1,0.1l0,0.1l-0.1,0.1l0,0.1l-0.1,0.1l0,0.1
	l-0.1,0.1l0,0.1l-0.1,0.1l0,0.1l-0.1,0.1l0,0.1l-0.1,0.1l0,0.1l-0.1,0.2l0,0.1l-0.1,0.2l0,0.1l-0.1,0.2l0,0.1l-0.1,0.2l0,0.1
	l-0.1,0.2l0,0.1l-0.1,0.2l0,0.1l-0.1,0.2l0,0.1l-0.1,0.2l0,0.1l-0.1,0.2l0,0.1l-0.1,0.2l0,0.1l-0.1,0.2l0,0.1l-0.1,0.2l-0.1,0.1l0,0
	l-0.2,0.3c-5.8,8.1-15.3,14.7-27,17.7c-7.4,1.9-29.6,7.7-35,9.1L250.5,214.4z M374,323.1l0.1,0.2l0,0c0,0.2,0.1,0.3,0.1,0.5l0,0l0,0
	l0,0l0,0l0,0l0,0l0,0c1.2,6.2,0.4,12.7-2.5,18.3l0,0l-0.3,0.5l-0.1,0.2l-0.1,0.2l0,0.1l-0.1,0.1l0,0.1l-0.1,0.1l0,0.1l-0.1,0.2
	l0,0.1l-0.1,0.2l0,0.1l-0.1,0.2l0,0.1l-0.1,0.2l0,0.1l-0.1,0.2l0,0.1l-0.1,0.2l0,0.1l-0.1,0.2l0,0.1l-0.1,0.2l0,0.1l-0.1,0.2l0,0.1
	l-0.1,0.2l0,0.1l-0.1,0.2l0,0.1l-0.1,0.2l0,0.1l-0.1,0.2l0,0.1l-0.1,0.2l-0.1,0.1l-0.1,0.2l-0.1,0.1l-0.2,0.2l-0.1,0.1l-0.2,0.2
	l-0.1,0.1l-0.2,0.2l-0.1,0.1l-0.2,0.2l-0.1,0.1l-0.2,0.2l-0.1,0.1l0,0l-0.2,0.3c-7.1,9-18.4,16.4-32.3,20
	c-8.7,2.3-35.1,9.1-41.5,10.8l-17.9-69.8c6.4-1.7,32.8-8.3,41.5-10.5c13.8-3.5,27.4-2.5,37.9,1.9l0.3,0.1l0,0l0.2,0.1l0.2,0.1l0.1,0
	l0.2,0.1l0.1,0l0.2,0.1l0.1,0l0.2,0.1l0.1,0l0.2,0.1l0.1,0l0.2,0.1l0.1,0l0.2,0.1l0.1,0l0.2,0.1l0.1,0l0.2,0.1l0.1,0l0.2,0.1l0.1,0
	l0.2,0.1l0.1,0l0.2,0.1l0.1,0l0.2,0.1l0.1,0l0.2,0.1l0.1,0l0.2,0.1l0.1,0l0.2,0.1l0.1,0l0.2,0.1l0.1,0l0.2,0.1l0.1,0l0.2,0.1l0.1,0
	l0.2,0.1l0.1,0l0.2,0.1l0.1,0l0.1,0.1l0.1,0l0.2,0.1l0.2,0.1c0.2,0.1,0.3,0.2,0.5,0.3l0,0c5.2,3.6,9.1,8.8,11.1,14.8l0,0l0.1,0.1
	c0.1,0.2,0.1,0.3,0.2,0.5l0,0l0.1,0.2c0.1,0.2,0.1,0.5,0.2,0.7C374,322.5,374,322.8,374,323.1L374,323.1z"/>
</svg>
