<?xml version="1.0"?>
<svg xmlns="http://www.w3.org/2000/svg" viewBox="0 0 24 24">
    <path fill="#393E46" d="M 17.1875 2 C 16.949938 2.00375 16.69975 2.05425 16.46875 2.15625 L 3.09375 8.0625 C 2.39875 8.3695 1.986 9.06625 2 9.78125 C 2.532 9.30125 3.229 9 4 9 L 5.40625 9 L 5.65625 8.40625 L 15 4.28125 L 15.78125 4.53125 C 15.79625 4.60125 15.7825 4.682 15.8125 4.75 C 16.0575 5.304 16.74375 5.54625 17.34375 5.28125 C 17.41775 5.24925 17.46725 5.19925 17.53125 5.15625 L 18.3125 5.40625 L 19.75 8.65625 L 19.59375 9 L 20 9 C 20.656 9 21.256 9.2025 21.75 9.5625 L 18.875 3.09375 C 18.569 2.40075 17.900188 1.98875 17.1875 2 z M 16.625 7 C 16.472687 7.0067656 16.30625 7.0275 16.15625 7.09375 C 15.55725 7.35875 15.255 8.04075 15.5 8.59375 C 15.581 8.77675 15.74925 8.894 15.90625 9 L 17.1875 9 C 17.6755 8.696 17.9085 8.126 17.6875 7.625 C 17.5045 7.2095 17.081937 6.9797031 16.625 7 z M 11.96875 7.59375 C 11.622 7.6105625 11.24775 7.69275 10.90625 7.84375 C 10.33225 8.09675 9.88475 8.513 9.59375 9 L 14.40625 9 C 13.96675 8.07 13.009 7.5433125 11.96875 7.59375 z M 4 10 C 2.895 10 2 10.895 2 12 L 2 20 C 2 21.105 2.895 22 4 22 L 20 22 C 21.105 22 22 21.105 22 20 L 22 12 C 22 10.895 21.105 10 20 10 L 4 10 z M 6.40625 11.46875 L 17.59375 11.46875 L 18.25 12.09375 C 18.233 12.17075 18.1875 12.2315 18.1875 12.3125 C 18.1875 12.9745 18.783 13.5 19.5 13.5 C 19.588 13.5 19.667 13.48375 19.75 13.46875 L 20.40625 14.0625 L 20.40625 17.9375 L 19.75 18.53125 C 19.667 18.51725 19.588 18.5 19.5 18.5 C 18.783 18.5 18.1875 19.0255 18.1875 19.6875 C 18.1875 19.7685 18.233 19.8605 18.25 19.9375 L 17.59375 20.53125 L 6.40625 20.53125 L 5.75 19.90625 C 5.767 19.82925 5.8125 19.7685 5.8125 19.6875 C 5.8125 19.0255 5.217 18.5 4.5 18.5 C 4.412 18.5 4.333 18.51625 4.25 18.53125 L 3.59375 17.9375 L 3.59375 14.0625 L 4.25 13.46875 C 4.333 13.48275 4.412 13.5 4.5 13.5 C 5.217 13.5 5.8125 12.9745 5.8125 12.3125 C 5.8125 12.2315 5.767 12.17075 5.75 12.09375 L 6.40625 11.46875 z M 11.9375 13.21875 C 10.2805 13.21875 8.9375 14.471 8.9375 16 C 8.9375 17.529 10.2805 18.78125 11.9375 18.78125 C 13.5945 18.78125 14.9375 17.529 14.9375 16 C 14.9375 14.471 13.5945 13.21875 11.9375 13.21875 z M 6.5 14.8125 C 5.783 14.8125 5.1875 15.338 5.1875 16 C 5.1875 16.662 5.783 17.1875 6.5 17.1875 C 7.217 17.1875 7.8125 16.662 7.8125 16 C 7.8125 15.338 7.217 14.8125 6.5 14.8125 z M 17.5 14.8125 C 16.783 14.8125 16.1875 15.338 16.1875 16 C 16.1875 16.662 16.783 17.1875 17.5 17.1875 C 18.217 17.1875 18.8125 16.662 18.8125 16 C 18.8125 15.338 18.217 14.8125 17.5 14.8125 z"/>
</svg>
