<svg width="32" height="32" viewBox="0 0 32 32" fill="none" xmlns="http://www.w3.org/2000/svg">
<path d="M10.6335 4.09758L0.912939 20.4141C-1.61845 24.6462 1.41922 30 6.27948 30H25.7205C30.5808 30 33.6184 24.6462 31.0871 20.4141L21.3665 4.09758C18.9364 -0.0325276 13.0636 -0.0325276 10.6335 4.09758ZM20.2021 4.81143L29.9733 21.1789C31.3402 23.4734 29.7201 26.4308 27.0368 26.4308H7.49454C4.81127 26.4308 3.14056 23.4734 4.55814 21.1789L14.3293 4.81143C15.6456 2.56791 18.8858 2.56791 20.2021 4.81143Z" fill="#DAAB6B"/>
<path d="M16.3544 8.22769L9.87403 19.0883C8.86148 20.771 10.0765 22.9125 12.0004 22.9125H24.9611C26.8849 22.9125 28.1 20.771 27.0875 19.0883L20.6071 8.22769C19.6452 6.59604 17.3163 6.59604 16.3544 8.22769ZM20.5565 10.8281L24.8092 17.9156C25.2142 18.5785 24.708 19.3943 23.9992 19.3943H15.4937C14.7343 19.3943 14.2786 18.5785 14.6837 17.9156L18.9364 10.8281C19.2908 10.1653 20.2021 10.1653 20.5565 10.8281Z" fill="#DAAB6B"/>
</svg>
