<svg width="40" height="40" viewBox="0 0 40 40" fill="none" xmlns="http://www.w3.org/2000/svg">
<rect width="40" height="40" rx="5" fill="#D90730"/>
<rect x="8.75" y="12.5" width="22.5" height="5" rx="1" fill="white"/>
<rect x="8.75" y="22.5" width="22.5" height="5" rx="1" fill="white"/>
<path d="M40 0H0V40H40V0Z" fill="#D90730"/>
<path d="M15.691 19.9015C15.691 14.3542 18.3671 11.313 22.4127 11.313C23.9117 11.3644 25.3754 11.7825 26.6761 12.5309C27.238 12.7984 27.6875 12.6928 28.411 10.9681L28.9377 9.78539C29.4645 8.37744 29.4996 7.75794 28.8535 7.46227C26.6205 6.27184 24.1271 5.65732 21.598 5.67417C14.4759 5.67417 9.07471 11.306 9.07471 19.9015C9.07471 28.4971 14.4759 34.143 21.598 34.143C24.1547 34.145 26.6736 33.5241 28.9377 32.3338C29.5699 32.0311 29.5348 31.4257 29.001 30.0247L28.4882 28.7576C27.7859 27.0188 27.3082 26.9132 26.7463 27.1948C25.4219 27.9634 23.9283 28.3915 22.3987 28.4408C18.353 28.4408 15.677 25.47 15.677 19.9015" fill="white"/>
</svg>
