<svg width="32" height="32" viewBox="0 0 32 32" fill="none" xmlns="http://www.w3.org/2000/svg">
<path d="M24.5363 15.0146H21.4395C21.1854 15.0146 21.0069 15.178 20.9704 15.4488C20.92 15.7195 21.0459 15.8829 21.2999 15.8829H22.8471C24.0671 15.8829 24.6508 16.6415 24.4356 17.9415C24.2204 19.2415 23.3942 20 22.1742 20H18.5212L18.789 18.3756H22.0231C22.2772 18.3756 22.4557 18.2122 22.4924 17.9415C22.5428 17.6707 22.4169 17.5073 22.1628 17.5073H20.6155C19.3956 17.5073 18.8119 16.7488 19.0271 15.4488C19.2422 14.1488 20.0822 13.3902 21.3021 13.3902H24.8156L24.5363 15.0146ZM28.2442 13.3902H29.7869C31.5905 13.3903 32.2405 14.2293 31.9224 16.1537L31.286 20L29.2261 19.9976L29.8625 16.1512C29.9769 15.3927 29.6885 15.0683 28.9767 15.0683H27.965L27.1502 19.9976H25.0903L26.5803 11H28.6402L28.2442 13.3902ZM17.1548 19.9976H13.5957C11.5884 19.9976 10.6843 18.8317 11.0413 16.6927C11.3847 14.5537 12.6801 13.3878 14.6897 13.3878H18.2489L17.1548 19.9976ZM6.81157 11C10.1395 11 10.7278 12.9342 10.2563 15.6537C9.93812 17.4805 9.14619 18.8805 7.81636 19.5342C7.2167 19.8293 6.64906 19.9951 5.31696 19.9951H1.5381L1.85166 18.1244L5.17276 18.1268C7.17091 18.1293 7.70422 17.2073 7.96285 16.3976C8.05899 16.0951 8.28558 15.1585 8.29245 14.6049C8.30847 13.5244 7.8095 12.8732 6.1272 12.8732L2.70998 12.8683L3.02354 11H6.81157ZM15.9074 15.0146H14.9918C13.8979 15.0146 13.2524 15.5293 13.0623 16.6927C12.8587 17.8585 13.2661 18.3732 14.3579 18.3732H15.3604L15.9074 15.0146ZM1.38931 14.5585C0.398257 14.5585 0.25634 15.2463 0.162503 15.6634C0.0389056 16.2098 0 16.4293 0 16.4293H3.87728C4.86835 16.4293 5.01026 15.7415 5.10409 15.3244C5.22769 14.7781 5.26661 14.5585 5.26661 14.5585H1.38931Z" fill="#008DE4"/>
</svg>
