<?xml version="1.0" encoding="utf-8"?>
<!-- Generator: Adobe Illustrator 25.1.0, SVG Export Plug-In . SVG Version: 6.00 Build 0)  -->
<svg version="1.1" id="_x33_f13d5c5-a0d1-40dd-8bbe-1f3b1635341d"
	 xmlns="http://www.w3.org/2000/svg" xmlns:xlink="http://www.w3.org/1999/xlink" x="0px" y="0px" viewBox="0 0 2500 2500"
	 style="enable-background:new 0 0 2500 2500;" xml:space="preserve">
<style type="text/css">
	.st0{fill:#988430;}
	.st1{fill:#BA9F33;}
	.st2{fill:#302900;}
	.st3{fill:#D1C079;}
	.st4{opacity:0.8;fill:#FFFFFF;enable-background:new    ;}
</style>
<circle class="st0" cx="1250" cy="1250" r="1250"/>
<circle class="st1" cx="1250" cy="1250" r="1184.5"/>
<g id="_x23_000000ff">
	<path class="st2" d="M835,521.2c3-44.1,0.9-90.9,21.7-131.2c7.7,64.3,19.2,128.2,36.4,190.8c2.7,15.1,11,35.2-3.1,47.2
		c-20.8,15.7-42.6,30.7-66.4,41.9C829.5,620.4,830.8,570.7,835,521.2z"/>
	<path class="st2" d="M1627.2,587.4c27.5-38.5,68.3-65.4,93.6-105.7c17.6,36.9,30.3,76.1,39.7,115.9c14.6,70.7,0,143.1-20.7,210.9
		c-18.7,65.6-28.6,141.4,8.4,202.4c-88.5-76.3-191.2-139.2-262.9-233.4c-8.4-8.2-13.8-18.7-14.8-30.5c19.5-10.1,30.8-29.1,44.6-45.2
		C1552.2,663.4,1591,626.6,1627.2,587.4z"/>
	<path class="st2" d="M692,934.5c26.6-36.5,95.3-31,110.7,13.4c8.5,27.5,3.4,60.4-16.2,82c-23.1,16.6-51.5,34.5-81,23.2
		c-17.3-16.1-11.3-44.9-7.4-65.8c6.5-27.2,37.6-31.8,61.2-32.7c-6.2-18.3-27-12.6-41.9-12.5c-29.4,5-43.4,37.3-48.9,62.9
		C667.9,979.7,677.4,954.8,692,934.5z"/>
	<path class="st2" d="M1143,1016.6c45.2-30.3,99.8-5.4,140.9,19.7c13.2,15.4,31.5,24.8,46.1,38.5c6.2,15.2-13.3,26.1-19.9,38.3
		c-33.6,28.4-79.4,41.5-123,40.4c-13.9-26.8-26.1-58.1-15.7-88.3c8.5-17.4,28.6-17.5,45.2-20.1c-2.4-23.6-34.1-19.6-51.8-19.1
		c-30.9-0.5-48.4,31.8-50.8,58.9c-1,19.2-5.2,45.7,16.6,55c-5.4,0.6-12.1,1.3-15.2-4.5c-13-10.4-31.6-15.7-39.3-31.3
		C1083.3,1066.5,1116,1041.1,1143,1016.6z"/>
	<path class="st2" d="M636.4,1189c20.3-19.1,37.6-41.1,60.7-57c-9.3,30.8-48.8,38.2-60.8,67.8c62.3-6.9,131.7-3.6,182.7,37.1
		c23.7,23.1,29.9,70.9-1.4,90.5c-46.8,35.4-92.5,79-151.2,92.2c-50.6,1-75.5-50.9-92.4-90.7c13.4-11.8,32.6-8.8,48.9-12.7
		c-11.6-13.2-30-16.8-43.4-27.9c-4.6-6.7-9.7-13-14.8-19.2C576.9,1233.9,606.6,1209.4,636.4,1189z"/>
	<path class="st2" d="M568.7,1474.9c13.1,1.4,26,5.2,39.2,5c17.8-2,34.2-10.8,52.2-11.3c51.5,5.1,97.3,30.3,145.3,47.4
		c31.2,11.5,60.3,30.7,94.4,32.1c65.1,8.8,127.3-20,191.7-20.7c-4.9,8.2-11,15.9-20,20c-53.1,27.2-113.2,34.5-171.8,40.6
		c-34.5,3.5-69.5-3.8-100.1-19.8c-58.1-20.4-112.1-52-172.6-65.5C606,1497.9,582.5,1493.3,568.7,1474.9z"/>
	<path class="st2" d="M566.2,1786.5c23,21.6,39.3,49.1,57,75.1c9.3,1.9,13.9-2.9,13.7-14.3c18.7,21.9,38.2,43.4,61.8,60.3
		c22.5,16.9,45.4,44.6,76.7,38.2c1.6-2,4.5-6,6-8c34.7,20.3,73.4,36,113.3,42c-1.9-11.7-8.6-21.4-17.8-28.6
		c89.4,8.9,179,19.7,268.9,13.4c3.6-5.6,2.7-10.8-2.7-15.6c66.5-12.1,133.2-23.2,199.5-36.4c-14-20.6-44.4-11-65.3-15.3
		c0.1-1.4,0.1-4.1,0.2-5.5c34.8-5.9,63.8-27.3,95.9-40.4c47.6-20.2,91.6-48.5,141.3-63.4c8.7-3.1,18.1-2.7,27.3-2.8
		c-3.6,13.3-19.8,10.1-29.7,15c-57.2,23.4-105.4,63.8-160.8,90.7c9.1,16.4,37.3,7.6,41.5,27c-59.7,7.8-118.5,22.2-178.3,29.4
		c4.4,8.9,13.7,12.2,22.2,16.1c-61.9,23.9-129.4,26-194.8,31.6c-37.4,1.7-74.2-7.1-111.3-10.9c-0.2,5-0.6,15.1-0.8,20.2
		c-47.8-4.5-89-34.1-136.3-39.6c3.2,5.4,6.5,10.9,9.9,16.3c-2.9,1.7-5.8,3.5-8.7,5.3c-28.4-10.4-52.9-28.6-75.6-48.3
		c-26.5-18.3-46.3-45.9-76.9-58.2c-2.6,9.6-4,20.2-11,27.7C601,1873,581.8,1829.6,566.2,1786.5z"/>
</g>
<g id="_x23_d8d8d8ff">
	<path class="st3" d="M854.7,339.3c8.1,0,16.2,0,24.4,0c33.5,30.8,48.4,75.6,62.5,117.6c23.5,58.5,84.8,87,119.3,137.4
		c34.7,2.8,68.9,9,103.2,15c66.4,11.6,134.3,2.3,200.7,13.3c27.9,3.4,57.1,10.4,84.8,2.5c72.8-70.6,152.2-134.1,225.8-203.8
		c22.4-15.1,43.9-40.7,73.6-36.5c16.4,2.3,24.9,18,34.3,29.9c56.6,93.4,77.3,205.9,66.9,314c-9.4,59.3-41.8,112.9-40.8,174.2
		c12.4,2.3,24.8,4.6,37.2,6.8c-1.5,8.9-3,17.8-4.5,26.6c5.9,9.1,11.7,18.9,7.5,30c8.9,9.5,16.8,20,22.4,31.9
		c-5.5,14.3,1.1,28.6-0.2,43.1c7.1,4.5,13.9,8.9,21.3,13.3c-4.3,2.4-12.9,7.1-17.2,9.5c12.4,18.3,23.8,37.6,29.9,59
		c-6.7,3.6-13.3,7.1-20,10.8c3.3,13.7,6.8,28.1,1.5,41.9c4.8,22,18.4,40,28.5,59.5c26.3,63.9,19.4,136,45.2,200.1
		c27.3,64.6,55.9,129.5,69.6,198.7c9.4,59.7,0.6,120.7-21.2,176.8c-21.3,51-29.3,111.6-4,162.6c4.9,4.8,49.4,49.5,40.6,115.6
		c-7.9,59.1-52.3,90.1-59.3,94.8c-79.9,55.3-553,371.6-1082.1,209.8c-155.7-47.6-276.9-124.6-364.8-195.5
		c-17.3-10.6-73.2-47.8-100-122.3c-31.1-86.3-0.8-160.6,6.4-176.8c-5.2-5.4-10.5-11-15.7-16.5c14.3-0.9,28.5-1.8,42.7-3.2
		c-7.3-10.1-15.2-19.8-23-29.5c13.7-3.4,27.5-7.1,41.2-10.8c-4.5-9.7-9.6-19-13.2-29c4.2-10.8,17.4-15.9,22.1-26.9
		c9.5-21.3-1.9-43.7-9.2-63.8c-20.9-49.5-44.5-97.8-63-148.3c-12.7-32.9-7.5-68.8-14.3-102.8c-7-34.5-17.4-69.5-11.3-105
		c6.5-45,5.1-91.6,18.9-135.4c19.1-47.8,39.3-95.2,59.5-142.6c14.6-44.5,19.2-91.4,24.8-137.6c10.7-74.7,59.1-143.1,127.2-176.3
		c44.6-24.6,93.9-38.6,139.7-60.6c20.4-9.8,21.7-33.1,27.7-47.8c38-93-10.7-154.6,18.7-251.9C824.3,394.4,834.2,368.6,854.7,339.3z
		 M835,521.2c-4.2,49.5-5.5,99.3-11.4,148.6c23.7-11.1,45.6-26.1,66.4-41.9c14.1-12,5.8-32.1,3.1-47.2
		c-17.1-62.5-28.6-126.4-36.4-190.8C835.9,430.2,838,477.1,835,521.2 M1627.2,587.4c-36.2,39.3-75,76.1-112.1,114.5
		c-13.9,16.1-25.1,35.1-44.6,45.2c1,11.9,6.4,22.3,14.8,30.5c71.7,94.2,174.4,157.1,262.9,233.4c-37-61-27.1-136.9-8.4-202.4
		c20.7-67.8,35.3-140.2,20.7-210.9c-9.5-39.8-22.2-79-39.7-115.9C1695.5,522,1654.7,548.9,1627.2,587.4 M692,934.5
		c-14.6,20.3-24,45.2-23.5,70.4c5.6-25.6,19.5-57.9,48.9-62.9c14.9-0.1,35.7-5.8,41.9,12.5c-23.6,1-54.6,5.5-61.2,32.7
		c-4,20.9-9.9,49.7,7.4,65.8c29.5,11.3,57.9-6.6,81-23.2c19.6-21.6,24.7-54.5,16.2-82C787.3,903.5,718.6,898,692,934.5 M1143,1016.6
		c-27,24.5-59.7,49.9-67,87.6c7.7,15.6,26.3,20.9,39.3,31.3c3.2,5.8,9.8,5.1,15.2,4.5c-21.8-9.3-17.6-35.8-16.6-55
		c2.4-27.1,19.9-59.4,50.8-58.9c17.8-0.6,49.4-4.5,51.8,19.1c-16.6,2.6-36.7,2.7-45.2,20.1c-10.4,30.1,1.7,61.4,15.7,88.3
		c43.5,1.1,89.4-12,123-40.4c6.6-12.2,26-23.1,19.9-38.3c-14.6-13.7-32.9-23.1-46.1-38.5C1242.8,1011.2,1188.1,986.3,1143,1016.6
		 M636.4,1189c-29.8,20.4-59.5,44.8-71.7,80.2c5.2,6.2,10.2,12.5,14.8,19.2c13.3,11.1,31.8,14.6,43.4,27.9
		c-16.3,3.9-35.4,0.9-48.9,12.7c16.9,39.8,41.8,91.8,92.4,90.7c58.7-13.2,104.4-56.8,151.2-92.2c31.4-19.6,25.1-67.3,1.4-90.5
		c-51-40.7-120.4-44.1-182.7-37.1c12-29.6,51.5-37.1,60.8-67.8C674,1147.9,656.8,1170,636.4,1189 M568.7,1474.9
		c13.8,18.3,37.3,22.9,58.3,27.8c60.5,13.5,114.6,45.1,172.6,65.5c30.6,15.9,65.6,23.3,100.1,19.8c58.6-6.2,118.6-13.5,171.8-40.6
		c8.9-4,15-11.7,20-20c-64.4,0.8-126.6,29.5-191.7,20.7c-34.1-1.4-63.2-20.6-94.4-32.1c-48-17-93.8-42.3-145.3-47.4
		c-17.9,0.5-34.4,9.3-52.2,11.3C594.6,1480.2,581.7,1476.3,568.7,1474.9 M566.2,1786.5c15.6,43.1,34.8,86.6,65.4,121.2
		c7.1-7.6,8.4-18.1,11-27.7c30.6,12.2,50.3,39.9,76.9,58.2c22.7,19.6,47.2,37.8,75.6,48.3c2.9-1.8,5.8-3.6,8.7-5.3
		c-3.4-5.4-6.7-10.9-9.9-16.3c47.4,5.4,88.5,35.1,136.3,39.6c0.2-5.1,0.6-15.2,0.8-20.2c37.1,3.8,73.9,12.6,111.3,10.9
		c65.4-5.6,132.9-7.7,194.8-31.6c-8.5-3.9-17.8-7.3-22.2-16.1c59.8-7.3,118.5-21.6,178.3-29.4c-4.2-19.4-32.3-10.6-41.5-27
		c55.5-26.8,103.6-67.3,160.8-90.7c10-4.9,26.2-1.7,29.7-15c-9.1,0.1-18.5-0.3-27.3,2.8c-49.7,14.9-93.8,43.2-141.3,63.4
		c-32.1,13.1-61.1,34.5-95.9,40.4c-0.1,1.4-0.1,4.1-0.2,5.5c20.9,4.3,51.3-5.3,65.3,15.3c-66.3,13.2-133,24.3-199.5,36.4
		c5.4,4.8,6.4,10,2.7,15.6c-89.9,6.3-179.6-4.5-268.9-13.4c9.1,7.1,15.9,16.8,17.8,28.6c-39.9-6-78.6-21.7-113.3-42
		c-1.5,2-4.5,6-6,8c-31.2,6.4-54.2-21.3-76.7-38.2c-23.7-16.8-43.1-38.4-61.8-60.3c0.1,11.5-4.5,16.3-13.7,14.3
		C605.5,1835.6,589.2,1808.1,566.2,1786.5z"/>
</g>
<path class="st4" d="M1885.4,933.5c-126.4-326.5-438.9-387-438.9-387H554.9l3.4,332.5h177.6v742.6h-181v331.9h866.9
	c208.9,0,376.4-210,376.4-210C2066.4,1362.9,1885.4,933.5,1885.4,933.5z M1426.5,1519.8c0,0-68,98.1-142,98.1h-148.1l-3.4-738h189.9
	c0,0,88,18.4,149.5,192.5C1472.4,1072.4,1553.9,1321.8,1426.5,1519.8L1426.5,1519.8z"/>
</svg>
