<svg width="32" height="32" viewBox="0 0 32 32" fill="none" xmlns="http://www.w3.org/2000/svg">
<g clip-path="url(#clip0_207_56)">
<path d="M15.972 0C4.02601 0.00447754 0.0134326 2.865 0 7.56934V7.61584C0.013746 20.6986 11.7216 32 15.9998 32C20.2806 32 32 20.6855 32 7.59292C32 2.87449 27.9936 0.00449993 16.0277 2.23877e-05H15.972V0Z" fill="#E1056D"/>
<path fill-rule="evenodd" clip-rule="evenodd" d="M6.06613 13.5809C5.26487 12.7371 4.5683 11.6983 5.32417 10.8148C6.12199 9.88471 6.69043 9.22108 7.48859 8.29064L12.6946 7H19.1842L24.3883 8.29064L26.5112 10.7682C27.5316 11.9591 26.8007 12.5714 25.7168 13.712C22.2137 17.3963 15.9386 24 15.9386 24L6.06613 13.5809ZM24.7077 13.3238C24.7077 13.3238 23.3244 13.6067 22.6178 13.7552C21.8052 13.9268 21.3674 13.6996 21.1338 13.225C20.9085 12.7689 20.2119 11.4117 20.2119 11.4117C20.2119 11.4117 20.4025 12.8016 20.4425 13.2671C20.4717 13.6118 20.5688 14.0289 19.5085 14.4372C18.7613 14.7242 16.797 15.3496 16.797 15.3496C16.797 15.3496 18.2758 15.1707 18.6631 15.1302C20.1146 14.9777 19.9981 15.6926 19.6995 16.2514C19.0664 17.4347 16.8423 21.4196 16.8423 21.4196C19.0158 18.4376 21.0151 14.6463 24.7077 13.3238V13.3238ZM15.1569 21.4197C15.1569 21.4197 12.9329 17.4348 12.2999 16.2514C12.0008 15.6926 11.8843 14.9778 13.3361 15.1303C13.7238 15.1707 15.2018 15.3497 15.2018 15.3497C15.2018 15.3497 13.238 14.7242 12.4904 14.4373C11.4301 14.0289 11.5275 13.6118 11.5568 13.2671C11.5964 12.8016 11.7874 11.4117 11.7874 11.4117C11.7874 11.4117 11.0904 12.7689 10.8655 13.225C10.6319 13.6996 10.1937 13.9268 9.38139 13.7552C8.67447 13.6067 7.29162 13.3238 7.29162 13.3238C10.9838 14.6463 12.9834 18.4376 15.1569 21.4197L15.1569 21.4197ZM12.6156 10.4471L14.8111 10.9587C15.2266 11.0554 15.5389 11.3861 15.6014 11.7947L16 13.6934L16.3975 11.7947C16.4603 11.3861 16.7727 11.0554 17.1886 10.9587L19.3837 10.4471H12.6156ZM20.3253 10.1859L22.4569 9.84002C22.7951 9.78493 23.139 9.89293 23.3795 10.1293L24.9926 11.7193C24.7852 11.3556 24.32 10.6379 23.973 10.1091C23.7212 9.72504 23.7657 9.22744 24.0815 8.88972L24.2591 8.69943L20.3253 10.1859L20.3253 10.1859ZM11.6736 10.1859L9.542 9.84002C9.20414 9.78493 8.86021 9.89293 8.61974 10.1293L7.00672 11.7193C7.21369 11.3556 7.67892 10.6379 8.02627 10.1091C8.2785 9.72504 8.23324 9.22744 7.91746 8.88972L7.73985 8.69943L11.6736 10.1859V10.1859Z" fill="#FEFEFE"/>
</g>
<defs>
<clipPath id="clip0_207_56">
<rect width="32" height="32" fill="white"/>
</clipPath>
</defs>
</svg>
