<svg width="84" height="23" viewBox="0 0 84 23" fill="none" xmlns="http://www.w3.org/2000/svg">
<g clip-path="url(#clip0_3227_22364)">
<path d="M0.977015 4.79602C0.969739 4.67976 1.00691 4.56516 1.08062 4.47663C1.12 4.43484 1.1677 4.40227 1.22044 4.38114C1.27319 4.36002 1.32975 4.35082 1.38626 4.3542H10.628C10.6868 4.3509 10.7457 4.36006 10.8009 4.38112C10.8562 4.40218 10.9066 4.43469 10.9491 4.47663C11.0248 4.5706 11.0636 4.69019 11.0579 4.812V7.18084C11.0553 7.29481 11.0172 7.40491 10.9491 7.49492C10.9108 7.54437 10.8619 7.58402 10.8062 7.6108C10.7505 7.63758 10.6894 7.65073 10.628 7.6493H4.58252V10.0287H9.24481C9.34961 10.0237 9.45317 10.0537 9.54008 10.1139C9.58058 10.1486 9.61216 10.1929 9.632 10.2431C9.65189 10.2932 9.65948 10.3476 9.65404 10.4014V12.4402C9.65313 12.5349 9.61807 12.626 9.55563 12.6958C9.51795 12.7387 9.47144 12.7724 9.41945 12.7945C9.36745 12.8166 9.31135 12.8265 9.25516 12.8235H4.59288V15.2775H10.8611C10.9185 15.2694 10.9769 15.2751 11.0318 15.2943C11.0867 15.3135 11.1364 15.3455 11.1772 15.3878C11.2179 15.4303 11.2485 15.4817 11.2664 15.5384C11.2844 15.595 11.2893 15.6551 11.2807 15.714V18.1202C11.28 18.1532 11.2727 18.1859 11.2594 18.2161C11.246 18.2464 11.2268 18.2735 11.203 18.2958C11.203 18.4715 11.0527 18.5619 10.8248 18.5619H1.38626C1.27724 18.5687 1.16982 18.5325 1.0858 18.4608C1.04684 18.4206 1.01691 18.3721 0.998113 18.3188C0.979319 18.2654 0.97212 18.2085 0.977015 18.1521V4.79602Z" fill="#16192E"/>
<path d="M12.2131 18.3327L12.3634 18.04C12.4152 17.9441 12.4773 17.8429 12.5447 17.7418L16.7407 11.3007L14.622 8.0216L12.498 4.74778C12.4654 4.70203 12.436 4.65401 12.41 4.60405C12.3886 4.55694 12.3746 4.50663 12.3685 4.455C12.3685 4.40177 12.4152 4.38048 12.4773 4.38048C12.5404 4.38377 12.6032 4.36903 12.6586 4.33789H15.9015C16.0171 4.3383 16.13 4.37325 16.2266 4.43846C16.3232 4.50368 16.3992 4.59635 16.4454 4.7052L18.7299 8.22917L21.0404 4.71052C21.0848 4.6057 21.1568 4.51575 21.2483 4.45083C21.3399 4.38591 21.4473 4.34864 21.5584 4.34321H24.8531C24.906 4.34768 24.9581 4.3584 25.0085 4.37515C25.0267 4.38177 25.0425 4.39402 25.0536 4.41023C25.0648 4.42645 25.0707 4.44581 25.0707 4.46565C25.0663 4.55751 25.0295 4.64457 24.9671 4.71052L20.7037 11.3007L25.0811 18.008C25.1358 18.0844 25.1827 18.1665 25.2209 18.2528C25.2533 18.3092 25.2694 18.3738 25.2675 18.4392C25.2675 18.535 25.2106 18.5829 25.0966 18.5829H21.7604C21.6563 18.5837 21.5546 18.5501 21.4704 18.4871C21.3802 18.4204 21.3087 18.3304 21.2632 18.2263L18.7299 14.3669L16.2227 18.2263C16.1771 18.3304 16.1057 18.4204 16.0155 18.4871C15.9312 18.5501 15.8296 18.5837 15.7254 18.5829H12.3789C12.3324 18.5837 12.2869 18.5687 12.2494 18.5403C12.2308 18.5264 12.2159 18.5079 12.206 18.4864C12.196 18.4651 12.1914 18.4416 12.1924 18.4179C12.1911 18.3881 12.1983 18.3585 12.2131 18.3327Z" fill="#16192E"/>
<path d="M27.1584 4.77488C27.1554 4.66568 27.1924 4.55932 27.262 4.47677C27.3011 4.43469 27.3488 4.40193 27.4016 4.38078C27.4544 4.35963 27.5111 4.35061 27.5676 4.35434H30.6188C30.7126 4.35567 30.8048 4.37936 30.8882 4.42354C30.9892 4.47401 31.0738 4.55353 31.1317 4.65244C31.9191 5.96195 32.7013 7.25196 33.4784 8.52246L35.8406 12.3925V4.71632C35.8641 4.61056 35.925 4.51758 36.0116 4.45548C36.0836 4.39212 36.1757 4.35804 36.2706 4.35966H38.928C39.0461 4.35763 39.1612 4.39707 39.2544 4.47145C39.2981 4.50888 39.3325 4.55633 39.355 4.60996C39.3775 4.66359 39.3874 4.7219 39.3839 4.7802V18.2108C39.3889 18.2638 39.3811 18.3173 39.3613 18.3665C39.3414 18.4157 39.31 18.4591 39.27 18.4929C39.1808 18.5574 39.0732 18.5892 38.9643 18.5834H35.9701C35.8896 18.5851 35.8116 18.5545 35.7525 18.4982C35.6813 18.4287 35.6171 18.3521 35.5609 18.2693L33.1054 14.1012C32.2973 12.7279 31.477 11.3385 30.6447 9.93314V18.1629C30.653 18.2759 30.6197 18.3879 30.5515 18.4769C30.5052 18.517 30.4515 18.5471 30.3936 18.5654C30.3358 18.5837 30.275 18.5898 30.2148 18.5834H27.5676C27.5101 18.59 27.4518 18.5823 27.3977 18.561C27.3436 18.5397 27.2953 18.5054 27.2568 18.461C27.1897 18.3814 27.1545 18.2787 27.1584 18.1735V4.77488Z" fill="#16192E"/>
<path d="M70.2949 11.4821C70.2963 12.135 70.2109 12.7851 70.0411 13.4144C69.877 14.0079 69.6347 14.5757 69.3208 15.1019C68.6979 16.1563 67.8197 17.0273 66.7722 17.6304C65.6703 18.25 64.4334 18.5724 63.1769 18.5673H58.5824C58.4774 18.5686 58.3744 18.543 58.2818 18.4928C58.1936 18.4396 58.1521 18.333 58.1521 18.1627V4.79602C58.1507 4.7328 58.1621 4.66995 58.1855 4.61135C58.2084 4.55276 58.2432 4.49966 58.2871 4.45533C58.3276 4.41043 58.3777 4.37559 58.4331 4.35345C58.4889 4.33132 58.5485 4.32247 58.6081 4.32758H63.2032C63.8414 4.3264 64.4768 4.41051 65.094 4.57777C65.6855 4.73855 66.2551 4.97649 66.7879 5.28575C67.3098 5.59107 67.7935 5.96115 68.228 6.38767C68.6597 6.81375 69.0342 7.29713 69.3418 7.82494C69.6538 8.36145 69.8961 8.93775 70.0616 9.53907C70.2276 10.1723 70.3064 10.8264 70.2949 11.4821ZM61.7631 7.78237V15.1551H62.5454C62.6866 15.1551 62.8268 15.1551 62.9647 15.1551L63.3739 15.1231C63.8261 15.0871 64.2683 14.9681 64.6795 14.7718C65.0654 14.5803 65.4165 14.3209 65.7156 14.0053C66.0199 13.6832 66.2613 13.3036 66.4254 12.8874C66.6004 12.4427 66.6882 11.967 66.6844 11.4874C66.6892 10.9782 66.5885 10.4737 66.3891 10.0075C66.1998 9.5671 65.9274 9.16961 65.5878 8.83799C65.2481 8.50631 64.8479 8.24705 64.41 8.07516C63.9521 7.88792 63.4631 7.79394 62.9699 7.79834L61.7631 7.78237Z" fill="#16192E"/>
<path d="M72.7296 4.79622C72.7224 4.67996 72.7596 4.56536 72.8331 4.47683C72.8727 4.43504 72.9204 4.40247 72.9733 4.38134C73.0258 4.36022 73.0826 4.35103 73.1389 4.3544H82.3857C82.4439 4.35052 82.5021 4.35944 82.5565 4.38056C82.6113 4.40167 82.6605 4.43449 82.702 4.47683C82.7812 4.56891 82.8222 4.68937 82.816 4.8122V7.18103C82.815 7.29625 82.7745 7.40744 82.702 7.49511C82.6624 7.54399 82.6123 7.58253 82.5555 7.60755C82.4988 7.63251 82.4372 7.64327 82.3757 7.63883H76.3353V10.0184H80.9976C81.1021 10.0133 81.2061 10.0432 81.2929 10.1035C81.3334 10.1382 81.3649 10.1825 81.3849 10.2326C81.4045 10.2827 81.4121 10.3371 81.4069 10.391V12.4404C81.4064 12.5364 81.3692 12.6282 81.3034 12.696C81.2671 12.7394 81.2213 12.7736 81.1703 12.7957C81.1188 12.8179 81.0634 12.8275 81.0076 12.8237H76.3458V15.2778H82.6137C82.671 15.2696 82.7296 15.2754 82.7845 15.2945C82.8394 15.3137 82.889 15.3457 82.93 15.3881C82.9705 15.4305 83.0011 15.482 83.0192 15.5386C83.0373 15.5952 83.0421 15.6553 83.0335 15.7143V18.1203C83.0326 18.1535 83.0254 18.1862 83.012 18.2164C82.9987 18.2466 82.9796 18.2737 82.9557 18.296C82.9557 18.4717 82.8055 18.5622 82.5722 18.5622H73.1389C73.0296 18.57 72.9218 18.5337 72.8383 18.4611C72.7997 18.4208 72.7696 18.3724 72.751 18.3191C72.732 18.2657 72.7248 18.2088 72.7296 18.1523V4.79622Z" fill="#16192E"/>
<path fill-rule="evenodd" clip-rule="evenodd" d="M53.6154 5.66434L48.5796 12.8751L46.5918 11.4795C46.2645 11.2498 45.8683 11.442 45.9408 11.7954L47.0014 16.9644C47.053 17.2156 47.3259 17.4072 47.579 17.3698L52.7864 16.6012C53.1422 16.5486 53.1871 16.1096 52.8599 15.8798L50.8717 14.4843L55.4386 7.94517C56.7194 10.3982 56.6235 13.4651 54.9301 15.8896C52.5126 19.3515 47.7536 20.1928 44.3007 17.7688C40.8479 15.3447 40.0087 10.5733 42.4265 7.11137C44.8442 3.6495 49.6033 2.80816 53.0559 5.23219C53.251 5.36897 53.4375 5.51326 53.6154 5.66434Z" fill="#16192E"/>
<path fill-rule="evenodd" clip-rule="evenodd" d="M50.8381 6.02929C50.7866 5.77801 50.5137 5.58642 50.2604 5.62382L45.0531 6.39248C44.6971 6.44499 44.6524 6.88399 44.9797 7.11379L46.9676 8.50936L42.1519 15.4049C42.6306 16.1909 43.2658 16.922 44.0673 17.5535L49.2597 10.1186L51.2474 11.5141C51.5751 11.7439 51.971 11.5517 51.8985 11.1982L50.8381 6.02929Z" fill="#5493E3"/>
</g>
<defs>
<clipPath id="clip0_3227_22364">
<rect width="83" height="22" fill="white" transform="translate(0.5 0.5)"/>
</clipPath>
</defs>
</svg>
