<svg width="32" height="32" viewBox="0 0 32 32" fill="none" xmlns="http://www.w3.org/2000/svg">
<g clip-path="url(#clip0_3_3363)">
<path d="M16 4C7.12 4 0 10.8 0 19.28C0 22.16 0.88 24.96 2.48 27.36H10.16C8.56 26.16 7.36 24.4 6.72 22.48C6.16 20.56 6.16 18.48 6.8 16.56C7.44 14.64 8.72 12.96 10.32 11.76C12 10.56 13.92 9.92 16 9.92C18 9.92 20 10.56 21.68 11.76C23.36 12.96 24.56 14.64 25.2 16.56C25.84 18.48 25.84 20.56 25.28 22.48C24.72 24.4 23.52 26.16 21.84 27.36H29.52C31.12 24.96 31.92 22.16 32 19.28C32 10.8 24.88 4 16 4Z" fill="#C8102E"/>
<path d="M10.8 21.84C11.12 22.96 11.84 23.92 12.8 24.56C13.76 25.28 14.88 25.6 16 25.6C17.12 25.6 18.32 25.2 19.2 24.56C20.16 23.84 20.8 22.96 21.2 21.84H10.8Z" fill="#C8102E"/>
</g>
<defs>
<clipPath id="clip0_3_3363">
<rect width="32" height="32" fill="white"/>
</clipPath>
</defs>
</svg>
