<svg xmlns:dc="http://purl.org/dc/elements/1.1/" xmlns:cc="http://creativecommons.org/ns#" xmlns:rdf="http://www.w3.org/1999/02/22-rdf-syntax-ns#" xmlns:svg="http://www.w3.org/2000/svg" xmlns="http://www.w3.org/2000/svg" id="svg2" preserveAspectRatio="xMidYMid meet" height="29.962206pt" version="1.0" viewBox="0 0 30 29.962206" width="30">
    <defs id="defs12"/>
    <g style="fill:#000000;stroke:none" id="g6" transform="matrix(0.1,0,0,-0.1,-188.83607,185.00574)">
        <g id="g3869">
            <g id="g3902">
                <g transform="matrix(0.11245877,0,0,0.11245877,2030.5223,1522.2777)" id="g3621">
                    <rect style="opacity:1;fill:#fe5000;fill-opacity:1;fill-rule:evenodd;stroke:none;stroke-width:2;stroke-linejoin:round;stroke-miterlimit:4;stroke-dasharray:none;stroke-dashoffset:4.61999989;stroke-opacity:1" id="rect3342" width="2664.2834" height="2664.2834" x="-1264.1222" y="-2914.6653" transform="scale(1,-1)" ry="335.87787"/>
                    <g id="g3604" transform="matrix(0.85920154,0,0,0.85920154,-2271.1629,458.87568)" style="fill:#ffffff">
                        <g style="fill:#ffffff" transform="matrix(10,0,0,10,3374.2611,2341.7245)" id="g3534">
                            <path id="path3536" style="fill:#ffffff;fill-opacity:1;fill-rule:evenodd;stroke:none" d="m 0,0 -37.666,-18.833 c -8.815,-4.407 -14.382,-13.416 -14.382,-23.275 l 0,-127.043 37.658,18.825 C -5.574,-145.911 0,-136.902 0,-127.049 L 0,0 Z"/>
                        </g>
                        <g style="fill:#ffffff" transform="matrix(10,0,0,10,2593.5471,1235.7225)" id="g3538">
                            <path id="path3540" style="fill:#ffffff;fill-opacity:1;fill-rule:evenodd;stroke:none" d="m 0,0 -37.667,-18.833 c -8.814,-4.407 -14.381,-13.416 -14.381,-23.275 l 0,-55.484 37.658,18.833 C -5.575,-74.35 0,-65.341 0,-55.482 L 0,0 Z"/>
                        </g>
                    </g>
                </g>

            </g>
        </g>
    </g>
</svg>