<?xml version="1.0" encoding="utf-8"?>
<!-- Generator: Adobe Illustrator 23.1.0, SVG Export Plug-In . SVG Version: 6.00 Build 0)  -->
<svg version="1.1" id="Слой_1" xmlns="http://www.w3.org/2000/svg" xmlns:xlink="http://www.w3.org/1999/xlink" x="0px" y="0px"
	 viewBox="0 0 34.9 32" style="enable-background:new 0 0 34.9 32;" xml:space="preserve">
<style type="text/css">
	.st0{fill:#FDD301;}
	.st1{fill:url(#SVGID_1_);}
	.st2{fill:url(#SVGID_2_);}
</style>
<g>
	<g>
		<circle class="st0" cx="17.4" cy="16" r="15.8"/>
		
			<linearGradient id="SVGID_1_" gradientUnits="userSpaceOnUse" x1="24.4201" y1="11.4454" x2="9.5386" y2="26.327" gradientTransform="matrix(1 0 0 -1 0 31.89)">
			<stop  offset="0" style="stop-color:#057DAF"/>
			<stop  offset="1" style="stop-color:#063073"/>
		</linearGradient>
		<path class="st1" d="M29.6,11.7H17.4c-1.6,0-2.9-1.3-2.9-2.9s1.3-2.9,2.9-2.9V3C10.7,3,5.2,8,4.5,14.5h25.8
			C30.2,13.6,29.9,12.6,29.6,11.7z"/>
		
			<linearGradient id="SVGID_2_" gradientUnits="userSpaceOnUse" x1="25.3146" y1="5.4509" x2="10.4331" y2="20.3325" gradientTransform="matrix(1 0 0 -1 0 31.89)">
			<stop  offset="0" style="stop-color:#C72127"/>
			<stop  offset="1" style="stop-color:#EC1B2E"/>
		</linearGradient>
		<path class="st2" d="M4.5,17.4c0.1,1,0.3,2,0.7,2.9h12.2c1.6,0,2.9,1.3,2.9,2.9s-1.3,2.9-2.9,2.9V29c6.7,0,12.2-5,12.9-11.5H4.5
			V17.4z"/>
	</g>
</g>
</svg>
