<?xml version="1.0" encoding="utf-8"?>
<!-- Generator: Adobe Illustrator 23.1.0, SVG Export Plug-In . SVG Version: 6.00 Build 0)  -->
<svg version="1.1" id="Слой_1" xmlns="http://www.w3.org/2000/svg" xmlns:xlink="http://www.w3.org/1999/xlink" x="0px" y="0px"
	 viewBox="0 0 101.9 130" style="enable-background:new 0 0 101.9 130;" xml:space="preserve">
<style type="text/css">
	.st0{clip-path:url(#SVGID_2_);}
	.st1{fill:#33CC66;}
	.st2{fill:#000099;}
	.st3{fill:#3399FF;}
</style>
<g>
	<defs>
		<rect id="SVGID_1_" y="0" width="562.2" height="130"/>
	</defs>
	<clipPath id="SVGID_2_">
		<use xlink:href="#SVGID_1_"  style="overflow:visible;"/>
	</clipPath>
	<g class="st0">
		<path class="st1" d="M22.4,50.7H0V130h22.4V50.7z"/>
		<path class="st2" d="M79.3,50.7c0.4,14.4-12.6,28.7-28.4,28.6C20.7,78.6-2.7,108.7,0.6,130c3.7,0,21.3,0,21.7,0
			c3-38.6,40.8-22.3,58.4-38.4c12.9-8.1,23.1-30.2,20.3-40.9C97.4,50.7,79.7,50.7,79.3,50.7z"/>
		<path class="st3" d="M50.8,0C20.7-0.7-2.7,29.4,0.6,50.7c3.7,0,21.3,0,21.7,0c2.3-39.5,56.2-35.9,56.9,0c-0.1,0,22,0,22.4,0
			C102.3,24.2,78.4-0.4,50.8,0L50.8,0z"/>
	</g>
</g>
</svg>
