<svg width="32" height="32" viewBox="0 0 32 32" fill="none" xmlns="http://www.w3.org/2000/svg">
<g clip-path="url(#clip0_5_3446)">
<path d="M0 0H32V32H0V0Z" fill="#DD002E"/>
<path d="M5.6 7.84V24.16H8.56V10.4H12.16V24.16H15.12V7.84H5.6ZM27.12 18.64C27.04 16.8 26.4 13.2 21.76 13.2L21.68 13.12H20.32V10.48H25.52V7.84H17.52V24.16H22C22.72 24.16 23.44 24 24.08 23.76C24.72 23.52 25.28 23.04 25.76 22.56C26.24 22 26.64 21.44 26.88 20.72C27.12 20.08 27.2 19.36 27.12 18.64ZM21.36 21.52C21.04 21.52 20.32 21.36 20.32 21.36V15.6H20.88C22.4 15.6 24.08 15.44 24.08 18.48C24.08 21.36 22.24 21.52 21.36 21.52Z" fill="white"/>
</g>
<defs>
<clipPath id="clip0_5_3446">
<rect width="32" height="32" fill="white"/>
</clipPath>
</defs>
</svg>
