<svg width="32" height="32" viewBox="0 0 32 32" fill="none" xmlns="http://www.w3.org/2000/svg">
<path d="M16 7.29456C19.0454 7.29456 21.5141 5.88547 21.5141 4.14728C21.5141 2.40908 19.0454 1 16 1C12.9546 1 10.4858 2.40908 10.4858 4.14728C10.4858 5.88547 12.9546 7.29456 16 7.29456Z" fill="#E6007A"/>
<path d="M16 31C19.0454 31 21.5141 29.5909 21.5141 27.8527C21.5141 26.1145 19.0454 24.7054 16 24.7054C12.9546 24.7054 10.4858 26.1145 10.4858 27.8527C10.4858 29.5909 12.9546 31 16 31Z" fill="#E6007A"/>
<path d="M8.3144 11.6474C9.83709 9.06031 9.82745 6.25853 8.29286 5.38943C6.75827 4.52034 4.27986 5.91303 2.75717 8.50011C1.23448 11.0872 1.24412 13.889 2.77871 14.7581C4.3133 15.6272 6.79171 14.2345 8.3144 11.6474Z" fill="#E6007A"/>
<path d="M29.2429 23.5001C30.7656 20.913 30.756 18.1113 29.2214 17.2422C27.6868 16.3731 25.2084 17.7658 23.6857 20.3528C22.163 22.9399 22.1726 25.7417 23.7072 26.6108C25.2418 27.4799 27.7202 26.0872 29.2429 23.5001Z" fill="#E6007A"/>
<path d="M8.29286 26.6107C9.82745 25.7416 9.8371 22.9398 8.3144 20.3527C6.79171 17.7656 4.3133 16.3729 2.77871 17.242C1.24412 18.1111 1.23448 20.9129 2.75717 23.5C4.27986 26.0871 6.75827 27.4798 8.29286 26.6107Z" fill="#E6007A"/>
<path d="M29.2213 14.7582C30.7559 13.8891 30.7655 11.0873 29.2428 8.50026C27.7201 5.91319 25.2417 4.52049 23.7071 5.38959C22.1725 6.25868 22.1629 9.06046 23.6856 11.6475C25.2083 14.2346 27.6867 15.6273 29.2213 14.7582Z" fill="#E6007A"/>
</svg>
