<?xml version="1.0" encoding="utf-8"?>
<!-- Generator: Adobe Illustrator 23.1.0, SVG Export Plug-In . SVG Version: 6.00 Build 0)  -->
<svg version="1.1" id="svg2407" xmlns:svg="http://www.w3.org/2000/svg"
	 xmlns="http://www.w3.org/2000/svg" xmlns:xlink="http://www.w3.org/1999/xlink" x="0px" y="0px" viewBox="0 0 180.8 158.7"
	 style="enable-background:new 0 0 180.8 158.7;" xml:space="preserve">
<style type="text/css">
	.st0{fill:#FFCC01;}
	.st1{fill-rule:evenodd;clip-rule:evenodd;fill:#010166;}
	.st2{fill:#FF0000;}
</style>
<polygon id="polygon5" class="st0" points="0,0 180.8,0 180.8,158.7 0,158.7 "/>
<path id="path7" class="st1" d="M131.6,37.1l-51,1.4c-26,15.9-45.9,56.4-49.1,80.9h43.9C78.6,97.1,91.9,60.8,131.6,37.1z
	 M154.8,70.7c0,0-17.2,0.2-17.3,0.3c-12.5,9.1-20.9,26.5-23.2,39.9h13.1C128.6,103.3,134.5,83.3,154.8,70.7z"/>
<path id="path27" class="st2" d="M115.6,58.1l29.9-0.8c-24.6,13-36.8,40.2-38.8,57H83.9C85.8,100.5,95.3,73.4,115.6,58.1L115.6,58.1
	z"/>
</svg>
