<svg width="32" height="32" viewBox="0 0 32 32" fill="none" xmlns="http://www.w3.org/2000/svg">
<g clip-path="url(#clip0_5_3530)">
<path d="M24.4381 -1L7.20001 1.27505V6.42857L24.4381 4.87444V-1Z" fill="#E4003A"/>
<path d="M17.8479 9.38095C15.0375 9.38095 12.7533 11.112 12.187 11.8287V9.7514H7.20001V31H12.1557V23.4422C12.7375 24.1745 15.0059 25.8744 17.8321 25.8744C22.522 25.8744 25.1048 23.3332 25.1048 17.6156C25.1048 11.8979 22.5254 9.38095 17.8479 9.38095ZM16.0725 21.7579C13.1198 21.7579 12.1904 20.6864 12.1904 17.6034C12.1904 14.5204 13.1128 13.4489 16.0725 13.4489C19.0322 13.4489 19.9373 14.5049 19.9373 17.6034C19.9373 20.702 19.0461 21.751 16.0725 21.751V21.7579Z" fill="#00274F"/>
</g>
<defs>
<clipPath id="clip0_5_3530">
<rect width="32" height="32" fill="white"/>
</clipPath>
</defs>
</svg>
