<svg width="32" height="32" viewBox="0 0 32 32" fill="none" xmlns="http://www.w3.org/2000/svg">
<path d="M27.4829 5.53282L23.6296 7.49094L5.02396 16.9424C4.96115 16.4639 4.92974 15.9812 4.92974 15.4984C4.93732 9.44042 9.93854 4.45926 16.013 4.45926C17.905 4.45926 19.7666 4.94204 21.4182 5.86223L23.6231 4.74223L23.9523 4.57482C21.6402 2.90076 18.8558 2 16 2C8.5729 2 2.46162 8.09469 2.46162 15.5016C2.46162 15.8451 2.47462 16.1885 2.50061 16.5298C2.57534 17.5159 2.04576 18.4545 1.16312 18.9038L0 19.4956V22.254L3.42439 20.513L4.53229 19.9492L5.62502 19.3941L25.24 9.42746L27.4439 8.30745L32 5.99184V3.23557L27.4829 5.53282ZM32 8.75135L6.73941 21.5779L4.53554 22.7001L0 25.0049V27.7612L4.50413 25.4726L8.35738 23.5145L26.9825 14.05C27.0454 14.5317 27.0768 15.0167 27.0768 15.5027C27.0735 21.5639 22.0712 26.5494 15.9935 26.5494C14.095 26.5494 12.228 26.0634 10.5721 25.1378L10.4367 25.209L8.04548 26.4241C10.3577 28.0982 13.1431 29 16 29C23.4249 29 29.5362 22.9075 29.5384 15.5027C29.5384 15.156 29.5243 14.8082 29.4994 14.4659C29.4247 13.4798 29.9532 12.5412 30.8347 12.0919L32 11.5011V8.75135Z" fill="black"/>
</svg>
