<svg width="32" height="32" viewBox="0 0 32 32" fill="none" xmlns="http://www.w3.org/2000/svg">
<g clip-path="url(#clip0_264_45)">
<path fill-rule="evenodd" clip-rule="evenodd" d="M5.85924 2.1375L0.0245143 14.4652C0.00231149 14.5111 -0.00472444 14.5628 0.00443544 14.613C0.0135953 14.6632 0.0384705 14.7091 0.0754232 14.744L15.8336 29.9327C15.8784 29.9758 15.938 30 16 30C16.062 30 16.1216 29.9758 16.1664 29.9327L31.9246 14.7449C31.9615 14.71 31.9864 14.6641 31.9956 14.614C32.0047 14.5638 31.9977 14.512 31.9755 14.4662L26.1408 2.13845C26.1219 2.09705 26.0917 2.06197 26.0535 2.03742C26.0154 2.01287 25.9711 1.99988 25.9258 2H6.07607C6.03059 1.99943 5.98592 2.01211 5.94745 2.03651C5.90897 2.06091 5.87834 2.09598 5.85924 2.1375Z" fill="#009292"/>
<path d="M5.84162 16V10.1818H9.76207V11.196H7.07173V12.5824H9.56037V13.5966H7.07173V14.9858H9.77344V16H5.84162ZM14.3338 10.1818H15.5639V13.9602C15.5639 14.3845 15.4626 14.7557 15.2599 15.0739C15.0592 15.392 14.7779 15.6402 14.4162 15.8182C14.0545 15.9943 13.633 16.0824 13.152 16.0824C12.669 16.0824 12.2467 15.9943 11.8849 15.8182C11.5232 15.6402 11.242 15.392 11.0412 15.0739C10.8404 14.7557 10.7401 14.3845 10.7401 13.9602V10.1818H11.9702V13.8551C11.9702 14.0767 12.0185 14.2737 12.1151 14.446C12.2135 14.6184 12.3518 14.7538 12.5298 14.8523C12.7079 14.9508 12.9152 15 13.152 15C13.3906 15 13.598 14.9508 13.7741 14.8523C13.9522 14.7538 14.0895 14.6184 14.1861 14.446C14.2846 14.2737 14.3338 14.0767 14.3338 13.8551V10.1818ZM16.576 16V10.1818H18.8714C19.3108 10.1818 19.6858 10.2604 19.9964 10.4176C20.3089 10.5729 20.5466 10.7936 20.7095 11.0795C20.8743 11.3636 20.9567 11.6979 20.9567 12.0824C20.9567 12.4687 20.8733 12.8011 20.7067 13.0795C20.54 13.3561 20.2985 13.5682 19.9822 13.7159C19.6679 13.8636 19.2872 13.9375 18.8402 13.9375H17.3033V12.9489H18.6413C18.8762 12.9489 19.0713 12.9167 19.2266 12.8523C19.3819 12.7879 19.4974 12.6913 19.5732 12.5625C19.6508 12.4337 19.6896 12.2737 19.6896 12.0824C19.6896 11.8892 19.6508 11.7263 19.5732 11.5938C19.4974 11.4612 19.3809 11.3608 19.2237 11.2926C19.0684 11.2225 18.8724 11.1875 18.6357 11.1875H17.8061V16H16.576ZM19.718 13.3523L21.1641 16H19.8061L18.3913 13.3523H19.718ZM21.6044 11.196V10.1818H26.3828V11.196H24.6016V16H23.3857V11.196H21.6044Z" fill="white"/>
<path d="M22.3 12.5H26.3L26 13.2H22L22.3 12.5Z" fill="white"/>
<path d="M22.5 13.7H25.5L25.2 14.4H22.2L22.5 13.7Z" fill="white"/>
</g>
<defs>
<clipPath id="clip0_264_45">
<rect width="32" height="28" fill="white" transform="translate(0 2)"/>
</clipPath>
</defs>
</svg>
