<?xml version="1.0" encoding="utf-8"?>
<!-- Generator: Adobe Illustrator 23.1.0, SVG Export Plug-In . SVG Version: 6.00 Build 0)  -->
<svg version="1.1" id="Слой_1" xmlns="http://www.w3.org/2000/svg" xmlns:xlink="http://www.w3.org/1999/xlink" x="0px" y="0px"
	 viewBox="0 0 25.1 23.9" style="enable-background:new 0 0 25.1 23.9;" xml:space="preserve">
<style type="text/css">
	.st0{fill-rule:evenodd;clip-rule:evenodd;fill:#E2001A;}
	.st1{fill-rule:evenodd;clip-rule:evenodd;fill:#FEFEFE;}
</style>
<g id="Layer_x0020_1">
	<g id="_792843056">
		<g>
			<path class="st0" d="M13,6.2C13,6.2,13,6.2,13,6.2c0.2-0.3,0.1-0.5,0-0.6c-0.1-0.1-1.9-1.2-1.9-1.2C11,4.3,10.9,4.1,10.9,4
				c0-0.3,0.2-0.5,0.5-0.6c1.2-0.3,5.4-0.5,6.8-0.5c0.5,0,1.3,0,2.1,0l0,0C18.2,1.1,15.5,0,12.5,0c-6.6,0-12,5.4-12,12
				c0,2.9,1,5.6,2.8,7.6c1.5-2.2,5.2-7.5,6-8.6c0.9-1.3,3.1-4,3.4-4.5l0,0L13,6.2z"/>
			<path class="st0" d="M5.2,21.5c2,1.6,4.6,2.5,7.3,2.5c6.6,0,12-5.4,12-12c0-2-0.5-3.9-1.4-5.5l0,0c0.4-0.4,0.9-1,0.6-1.8
				c-0.1-0.2-0.6-0.8-0.7-0.9l0,0c0.3,0.9-0.3,1.4-0.7,1.8c-0.2,0.2-3.3,3.1-6.8,6.2c-3.1,2.7-6.7,5.5-8.7,7.1
				C4,21,3.4,21.3,3.4,21.3c-0.1,0-0.2,0.1-0.3,0.1c-0.2,0-0.3-0.1-0.4-0.2l0,0c0,0,0,0.1,0,0.1c0.3,0.5,0.8,1.1,1.1,1.1
				c0.1,0,0.2,0,0.3-0.1C4.1,22.2,4.3,22.1,5.2,21.5z"/>
			<path class="st1" d="M13,6.2c0.2-0.3,0.1-0.5,0-0.6c-0.1-0.1-1.9-1.2-1.9-1.2C11,4.3,10.9,4.1,10.9,4c0-0.3,0.2-0.5,0.5-0.6
				c1.2-0.3,5.4-0.5,6.8-0.5c0.7,0,2,0,2.9,0.1c1,0.1,1.7,0.3,1.9,0.7c0.4,0.9-0.2,1.5-0.7,1.9c-0.2,0.2-3.3,3.1-6.8,6.2
				c-3.1,2.7-6.7,5.5-8.7,7.1C4,21,3.4,21.3,3.4,21.3c-0.1,0-0.2,0.1-0.3,0.1c-0.3,0-0.5-0.2-0.5-0.5c0-0.1,0-0.2,0.1-0.3
				c0,0,5.6-8.1,6.7-9.5c1-1.4,3.5-4.6,3.5-4.6S12.9,6.4,13,6.2z"/>
		</g>
	</g>
</g>
</svg>
